<svg width="147" height="22" viewBox="0 0 147 22" fill="none" xmlns="http://www.w3.org/2000/svg">
<g clip-path="url(#clip0_4621_21786)">
<path d="M20.1762 0.259008V10.9695C20.1762 13.4402 19.3925 15.7174 18.0732 17.5362C17.2279 18.7031 16.161 19.6831 14.9402 20.4023C14.8232 20.4719 14.7063 20.537 14.5873 20.6022C13.2187 21.3367 11.6738 21.7539 10.0344 21.7626C10.018 21.7626 10.0016 21.7626 9.98516 21.7626H9.77793C7.95597 21.7626 6.25096 21.2389 4.78601 20.3263C1.87661 18.5119 -0.0766602 15.1611 -0.0766602 11.3259V10.7631C-0.0766602 6.91695 1.87456 3.55321 4.78601 1.72358C4.96861 1.60842 5.15532 1.49977 5.34408 1.39764C6.67157 0.680563 8.16936 0.272047 9.75742 0.256836C9.78614 0.256836 9.81487 0.256836 9.84154 0.256836H20.1762V0.259008Z" fill="#7E9ACF"/>
<path d="M10.0345 0.259008V21.7626C10.0181 21.7626 10.0017 21.7626 9.98529 21.7626H9.77806C7.9561 21.7626 6.25109 21.2389 4.78613 20.3263V1.72358C4.96874 1.60842 5.15545 1.49977 5.34421 1.39764C6.6717 0.680563 8.16948 0.272047 9.75754 0.256836C9.78627 0.256836 9.81499 0.256836 9.84167 0.256836H10.0345V0.259008Z" fill="#78C7CE"/>
<path d="M18.0732 17.5381C17.2279 18.705 16.161 19.685 14.9402 20.4043C14.8233 20.4738 14.7063 20.539 14.5873 20.6042L10.0345 11.1431L5.34619 1.39959C6.67368 0.682516 8.17146 0.274 9.75952 0.258789L10.0345 0.828106L14.9402 11.0236L18.0732 17.5381Z" fill="#84CEBF"/>
<path d="M20.1765 0.259008V10.9695C20.1765 13.4402 19.3927 15.7174 18.0735 17.5362C17.2281 18.7031 16.1612 19.6831 14.9404 20.4023V0.256836H20.1765V0.259008Z" fill="#78C7CE"/>
<path d="M40.2089 16.351H38.0255L33.0814 8.44062V16.351H30.8979V4.80566H33.0814L38.0255 12.7327V4.80566H40.2089V16.351Z" fill="#2B303B"/>
<path d="M50.3308 12.4707H44.0141C44.0652 13.1319 44.2851 13.6497 44.67 14.024C45.0548 14.3983 45.528 14.5855 46.0896 14.5855C46.9005 14.5855 47.4778 14.2174 47.8214 13.4792H50.1756C49.9263 14.3609 49.4472 15.0846 48.7403 15.6502C48.0334 16.2179 47.1656 16.5007 46.1367 16.5007C45.3042 16.5007 44.558 16.3052 43.8983 15.9143C43.2386 15.5233 42.7241 14.9702 42.355 14.2549C41.9858 13.5395 41.8013 12.714 41.8013 11.7782C41.8013 10.832 41.9839 10.0002 42.3471 9.28487C42.7104 8.56953 43.2209 8.01847 43.8747 7.63376C44.5305 7.24906 45.2826 7.05566 46.1367 7.05566C46.9574 7.05566 47.6938 7.24281 48.3437 7.61712C48.9936 7.99143 49.4982 8.52378 49.8556 9.21001C50.2149 9.89833 50.3936 10.6885 50.3936 11.5806C50.3916 11.9092 50.372 12.2066 50.3308 12.4707ZM48.1316 10.9173C48.1218 10.3225 47.9176 9.84634 47.5229 9.48867C47.1283 9.13099 46.6452 8.95216 46.0719 8.95216C45.5319 8.95216 45.0764 9.12476 44.7073 9.47203C44.3381 9.81931 44.1123 10.2997 44.0279 10.9173H48.1316Z" fill="#2B303B"/>
<path d="M63.96 7.20117L61.433 16.3509H59.0788L57.504 9.95858L55.9293 16.3509H53.5593L51.0166 7.20117H53.2314L54.759 14.1716L56.4123 7.20117H58.7194L60.3413 14.155L61.8689 7.20117H63.96Z" fill="#2B303B"/>
<path d="M67.6865 9.1015V13.5287C67.6865 13.8365 67.7572 14.059 67.8966 14.1983C68.036 14.3377 68.2736 14.4042 68.6054 14.4042H69.6186V16.3527H68.2461C66.4063 16.3527 65.4854 15.4065 65.4854 13.5121V9.1015H64.4565V7.20292H65.4854V4.94043H67.6846V7.20292H69.6186V9.1015H67.6865V9.1015Z" fill="#2B303B"/>
<path d="M72.7852 15.9143C72.1196 15.5233 71.5973 14.9702 71.2183 14.2549C70.8394 13.5395 70.6489 12.714 70.6489 11.7782C70.6489 10.8424 70.8433 10.0169 71.2341 9.30151C71.6248 8.58617 72.1569 8.03302 72.8323 7.64208C73.5078 7.25113 74.2618 7.05566 75.0943 7.05566C75.9268 7.05566 76.6789 7.25113 77.3563 7.64208C78.0317 8.03302 78.5658 8.58617 78.9546 9.30151C79.3453 10.0169 79.5397 10.8424 79.5397 11.7782C79.5397 12.714 79.3394 13.5395 78.9389 14.2549C78.5383 14.9702 77.9983 15.5233 77.317 15.9143C76.6357 16.3052 75.8738 16.5007 75.0315 16.5007C74.1989 16.5007 73.4509 16.3052 72.7852 15.9143ZM76.1467 14.18C76.4943 13.9762 76.7731 13.6705 76.9812 13.2629C77.1894 12.8554 77.2934 12.3604 77.2934 11.7761C77.2934 10.9069 77.0775 10.2373 76.6455 9.7694C76.2135 9.30151 75.6873 9.06653 75.0629 9.06653C74.4385 9.06653 73.9162 9.30151 73.496 9.7694C73.0758 10.2373 72.8638 10.9069 72.8638 11.7761C72.8638 12.6453 73.068 13.3149 73.4803 13.7828C73.8907 14.2507 74.409 14.4857 75.0315 14.4857C75.4261 14.4857 75.7972 14.3838 76.1467 14.18Z" fill="#2B303B"/>
<path d="M88.4267 8.10089C89.0609 8.78921 89.377 9.74993 89.377 10.9831V16.3502H87.1936V11.2971C87.1936 10.5693 87.0228 10.0119 86.6792 9.621C86.3356 9.23006 85.8683 9.03458 85.2753 9.03458C84.6725 9.03458 84.1973 9.23006 83.8478 9.621C83.5003 10.0119 83.3255 10.5713 83.3255 11.2971V16.3502H81.1421V7.20047H83.3255V8.34003C83.6161 7.94285 83.9892 7.633 84.4408 7.40634C84.8924 7.18175 85.3892 7.06738 85.9291 7.06738C86.9619 7.06946 87.7925 7.41258 88.4267 8.10089Z" fill="#2B303B"/>
<path d="M96.8541 16.0593C96.2866 15.7848 95.8409 15.4001 95.515 14.9073C95.191 14.4144 95.0182 13.8654 94.9966 13.2582H96.1963C96.2513 13.8426 96.4928 14.3541 96.9267 14.795C97.3587 15.2358 97.9909 15.4562 98.8254 15.4562C99.5932 15.4562 100.202 15.2483 100.65 14.8303C101.097 14.4123 101.323 13.8821 101.323 13.2416C101.323 12.7259 101.199 12.312 100.95 11.996C100.701 11.682 100.392 11.447 100.025 11.291C99.658 11.1371 99.1494 10.9666 98.4995 10.7836C97.7416 10.5674 97.1427 10.3532 96.6989 10.1473C96.2552 9.94143 95.8762 9.62118 95.564 9.18449C95.2499 8.74988 95.0928 8.1593 95.0928 7.41484C95.0928 6.79723 95.244 6.24408 95.5464 5.75748C95.8487 5.27088 96.2768 4.89034 96.8285 4.61584C97.3803 4.34135 98.0125 4.2041 98.7273 4.2041C99.7758 4.2041 100.622 4.47652 101.266 5.01927C101.91 5.56409 102.279 6.26488 102.377 7.12371H101.144C101.068 6.63087 100.814 6.19418 100.382 5.80947C99.9505 5.42684 99.3654 5.23345 98.631 5.23345C97.9497 5.23345 97.3823 5.42476 96.9287 5.80947C96.4751 6.19418 96.2473 6.71821 96.2473 7.38157C96.2473 7.8848 96.371 8.29238 96.6204 8.60223C96.8698 8.91207 97.18 9.14706 97.5531 9.30718C97.9261 9.4673 98.4308 9.6399 99.0689 9.8229C99.8033 10.0412 100.398 10.2554 100.854 10.4675C101.307 10.6796 101.692 11.004 102.006 11.4387C102.32 11.8733 102.478 12.4576 102.478 13.1917C102.478 13.7531 102.336 14.2855 102.055 14.7887C101.775 15.292 101.358 15.6995 100.807 16.0094C100.255 16.3192 99.5951 16.4731 98.8274 16.4731C98.0793 16.471 97.4215 16.3338 96.8541 16.0593Z" fill="#2B303B"/>
<path d="M104.697 9.11005C105.064 8.38223 105.572 7.82077 106.22 7.42567C106.868 7.03056 107.611 6.83301 108.443 6.83301C109.535 6.83301 110.436 7.11998 111.143 7.69184C111.852 8.2637 112.307 9.04351 112.513 10.0271H111.296C111.145 9.35127 110.817 8.82101 110.314 8.43838C109.812 8.05575 109.187 7.86235 108.441 7.86235C107.846 7.86235 107.312 8.00584 106.835 8.29281C106.36 8.57978 105.983 9.00608 105.708 9.5717C105.433 10.1394 105.294 10.834 105.294 11.6595C105.294 12.4851 105.431 13.1838 105.708 13.7556C105.985 14.3275 106.36 14.758 106.835 15.0449C107.31 15.3319 107.846 15.4754 108.441 15.4754C109.187 15.4754 109.812 15.2841 110.314 14.8994C110.817 14.5167 111.145 13.9802 111.296 13.294H112.513C112.307 14.2568 111.848 15.0283 111.135 15.6126C110.422 16.197 109.523 16.4881 108.443 16.4881C107.611 16.4881 106.87 16.2906 106.22 15.8954C105.572 15.5003 105.064 14.9389 104.697 14.2111C104.33 13.4832 104.145 12.6327 104.145 11.6595C104.145 10.6884 104.33 9.83788 104.697 9.11005Z" fill="#2B303B"/>
<path d="M120.632 7.24647C121.168 7.54384 121.589 7.99925 121.897 8.6127C122.205 9.22615 122.358 9.97269 122.358 10.8544V16.3505H121.239V10.9916C121.239 9.97269 120.998 9.19287 120.517 8.65636C120.036 8.11778 119.378 7.84952 118.545 7.84952C117.691 7.84952 117.01 8.13649 116.501 8.70835C115.993 9.28021 115.739 10.1224 115.739 11.2329V16.3526H114.604V3.64062H115.739V8.5711C116.02 8.00964 116.434 7.57503 116.98 7.26518C117.526 6.95534 118.141 6.80146 118.822 6.80146C119.496 6.79938 120.098 6.9491 120.632 7.24647Z" fill="#2B303B"/>
<path d="M126.505 15.8956C125.839 15.5005 125.315 14.939 124.932 14.2112C124.547 13.4834 124.357 12.6328 124.357 11.6596C124.357 10.6864 124.551 9.83593 124.94 9.1081C125.329 8.38028 125.859 7.81882 126.531 7.42371C127.2 7.02861 127.952 6.83105 128.785 6.83105C129.617 6.83105 130.371 7.02861 131.047 7.42371C131.722 7.81882 132.252 8.38028 132.637 9.1081C133.02 9.83593 133.212 10.6864 133.212 11.6596C133.212 12.6224 133.018 13.4688 132.629 14.2029C132.24 14.9369 131.704 15.5005 131.023 15.8956C130.342 16.2907 129.584 16.4882 128.751 16.4882C127.919 16.4882 127.171 16.2907 126.505 15.8956ZM130.373 15.0201C130.87 14.7394 131.272 14.3152 131.581 13.7495C131.889 13.1818 132.042 12.4873 132.042 11.6617C132.042 10.8382 131.891 10.1416 131.589 9.57391C131.286 9.00621 130.886 8.58407 130.389 8.30334C129.892 8.02261 129.35 7.88328 128.767 7.88328C128.184 7.88328 127.642 8.02261 127.145 8.30334C126.648 8.58407 126.25 9.00829 125.953 9.57391C125.655 10.1416 125.508 10.8362 125.508 11.6617C125.508 12.4873 125.657 13.1818 125.953 13.7495C126.25 14.3172 126.644 14.7394 127.137 15.0201C127.63 15.3008 128.168 15.4402 128.751 15.4402C129.334 15.4402 129.876 15.3008 130.373 15.0201Z" fill="#2B303B"/>
<path d="M136.918 15.8956C136.252 15.5005 135.728 14.939 135.345 14.2112C134.96 13.4834 134.77 12.6328 134.77 11.6596C134.77 10.6864 134.964 9.83593 135.353 9.1081C135.741 8.38028 136.272 7.81882 136.943 7.42371C137.613 7.02861 138.365 6.83105 139.197 6.83105C140.03 6.83105 140.784 7.02861 141.459 7.42371C142.135 7.81882 142.665 8.38028 143.05 9.1081C143.433 9.83593 143.625 10.6864 143.625 11.6596C143.625 12.6224 143.431 13.4688 143.042 14.2029C142.653 14.9369 142.117 15.5005 141.436 15.8956C140.754 16.2907 139.996 16.4882 139.164 16.4882C138.331 16.4882 137.583 16.2907 136.918 15.8956ZM140.788 15.0201C141.284 14.7394 141.687 14.3152 141.995 13.7495C142.304 13.1818 142.457 12.4873 142.457 11.6617C142.457 10.8382 142.305 10.1416 142.003 9.57391C141.701 9.00621 141.3 8.58407 140.803 8.30334C140.307 8.02261 139.765 7.88328 139.182 7.88328C138.598 7.88328 138.056 8.02261 137.56 8.30334C137.063 8.58407 136.664 9.00829 136.368 9.57391C136.069 10.1416 135.922 10.8362 135.922 11.6617C135.922 12.4873 136.071 13.1818 136.368 13.7495C136.664 14.3172 137.059 14.7394 137.552 15.0201C138.045 15.3008 138.583 15.4402 139.166 15.4402C139.749 15.4402 140.289 15.3008 140.788 15.0201Z" fill="#2B303B"/>
<path d="M146.837 3.63867V16.3506H145.702V3.63867H146.837V3.63867Z" fill="#2B303B"/>
</g>
<defs>
<clipPath id="clip0_4621_21786">
<rect width="147" height="22" fill="white"/>
</clipPath>
</defs>
</svg>
